<svg width="75" height="73" viewBox="0 0 75 73" fill="none" xmlns="http://www.w3.org/2000/svg">
<path d="M4.24528 1.5H27.2406C28.7406 1.5 29.9858 2.73475 29.9858 4.29412V27.5539C29.9858 29.1133 28.7406 30.348 27.2406 30.348H4.24528C2.74523 30.348 1.5 29.1133 1.5 27.5539V4.29412C1.5 2.73475 2.74523 1.5 4.24528 1.5ZM4.24528 42.652H27.2406C28.7406 42.652 29.9858 43.8867 29.9858 45.4461V68.7059C29.9858 70.2653 28.7406 71.5 27.2406 71.5H4.24528C2.74523 71.5 1.5 70.2653 1.5 68.7059V45.4461C1.5 43.8867 2.74523 42.652 4.24528 42.652ZM47.7594 1.5H70.7547C72.2548 1.5 73.5 2.73475 73.5 4.29412V27.5539C73.5 29.1133 72.2548 30.348 70.7547 30.348H47.7594C46.2594 30.348 45.0142 29.1133 45.0142 27.5539V4.29412C45.0142 2.73475 46.2594 1.5 47.7594 1.5ZM47.7594 42.652H70.7547C72.2548 42.652 73.5 43.8867 73.5 45.4461V68.7059C73.5 70.2653 72.2548 71.5 70.7547 71.5H47.7594C46.2594 71.5 45.0142 70.2653 45.0142 68.7059V45.4461C45.0142 43.8867 46.2594 42.652 47.7594 42.652Z" stroke="black" stroke-width="3"/>
</svg>
