<svg width="53" height="57" viewBox="0 0 53 57" fill="none" xmlns="http://www.w3.org/2000/svg">
<path d="M32.5285 18.5681L48.4279 2.46023M25.3853 13.3075L32.3147 18.4478M25.3854 13.2755L17.7814 20.6391M36.2154 2H48.6008V14.4644M16.7 55H36.3M26.4999 45.2133V55M33.191 37.2321V25.0831M39.6792 37.2321V16.9838M26.7027 37.637V20.6284M20.2145 37.637V29.1327M13.7262 37.6371V31.1576M6.9 10.9599H46.1C48.8062 10.9599 51 13.1507 51 15.8532V40.3199C51 43.0225 48.8062 45.2133 46.1 45.2133H6.9C4.1938 45.2133 2 43.0225 2 40.3199V15.8532C2 13.1507 4.1938 10.9599 6.9 10.9599Z" stroke="black" stroke-width="3" stroke-linecap="round" stroke-linejoin="round"/>
</svg>
