<svg width="88" height="80" viewBox="0 0 88 80" fill="none" xmlns="http://www.w3.org/2000/svg">
<path d="M2 28.804C1.17157 28.804 0.5 29.4756 0.5 30.304C0.5 31.1324 1.17157 31.804 2 31.804V28.804ZM6.05895 30.304L7.52979 30.0097C7.38952 29.3086 6.77392 28.804 6.05895 28.804V30.304ZM8.77844 43.8958L10.2497 43.6036L10.2493 43.6015L8.77844 43.8958ZM10.8079 45.53V44.03C10.7983 44.03 10.7887 44.0301 10.7792 44.0303L10.8079 45.53ZM20.6712 45.53L20.6999 44.0303C20.6903 44.0301 20.6807 44.03 20.6712 44.03L20.6712 45.53ZM22.7006 43.8958L24.172 44.1879L24.1741 44.1767L22.7006 43.8958ZM24.3242 35.3793L25.7977 35.6603C25.8814 35.2211 25.7649 34.7676 25.4799 34.4231C25.195 34.0787 24.7712 33.8793 24.3242 33.8793V35.3793ZM7.07368 33.8793C6.24526 33.8793 5.57368 34.5509 5.57368 35.3793C5.57368 36.2078 6.24526 36.8793 7.07368 36.8793V33.8793ZM86 39.5913L87.5 39.5913V39.5913L86 39.5913ZM76.7158 53.0062L75.8836 54.2541C76.3875 54.5902 77.0441 54.5902 77.548 54.2541L76.7158 53.0062ZM67.4316 39.5913L65.9316 39.5913V39.5913H67.4316ZM56.7007 2H58.2007C58.2007 1.46714 57.918 0.974284 57.4581 0.70524C56.9981 0.436196 56.43 0.431358 55.9655 0.692531L56.7007 2ZM46.2411 7.88154V9.38154C46.4987 9.38154 46.7519 9.31523 46.9763 9.18901L46.2411 7.88154ZM37.8735 7.88154V6.38154C37.045 6.38154 36.3735 7.05311 36.3735 7.88154H37.8735ZM37.8735 16.7038H36.3735C36.3735 17.5323 37.045 18.2038 37.8735 18.2038V16.7038ZM46.2411 16.7038L46.9763 15.3964C46.7519 15.2701 46.4987 15.2038 46.2411 15.2038V16.7038ZM56.7007 22.5854L55.9655 23.8929C56.43 24.154 56.9981 24.1492 57.4581 23.8801C57.918 23.6111 58.2007 23.1182 58.2007 22.5854H56.7007ZM44.0214 17.5992C44.0214 16.7707 43.3498 16.0992 42.5214 16.0992C41.6929 16.0992 41.0214 16.7707 41.0214 17.5992H44.0214ZM41.0214 21.4398C41.0214 22.2682 41.6929 22.9398 42.5214 22.9398C43.3498 22.9398 44.0214 22.2682 44.0214 21.4398H41.0214ZM38.9343 17.6388C39.52 17.0529 39.5198 16.1032 38.9339 15.5175C38.3481 14.9318 37.3983 14.9319 36.8126 15.5178L38.9343 17.6388ZM35.1859 17.145C34.6002 17.7309 34.6004 18.6807 35.1863 19.2664C35.7722 19.852 36.7219 19.8519 37.3076 19.266L35.1859 17.145ZM36.25 9.19229C36.8356 9.77817 37.7854 9.77832 38.3713 9.19263C38.9572 8.60694 38.9573 7.6572 38.3716 7.07131L36.25 9.19229ZM36.7449 5.44409C36.1592 4.85821 35.2095 4.85805 34.6236 5.44374C34.0377 6.02943 34.0376 6.97918 34.6233 7.56506L36.7449 5.44409ZM37.4537 6.64948C37.4537 5.82105 36.7821 5.14948 35.9537 5.14948C35.1253 5.14948 34.4537 5.82105 34.4537 6.64948H37.4537ZM34.4537 17.9359C34.4537 18.7643 35.1253 19.4359 35.9537 19.4359C36.7821 19.4359 37.4537 18.7643 37.4537 17.9359H34.4537ZM47.3886 52.9472C47.3886 52.1188 46.717 51.4472 45.8886 51.4472C45.0602 51.4472 44.3886 52.1188 44.3886 52.9472H47.3886ZM44.3886 78C44.3886 78.8284 45.0602 79.5 45.8886 79.5C46.717 79.5 47.3886 78.8284 47.3886 78H44.3886ZM51.5152 59.0022C52.3436 59.0022 53.0152 58.3307 53.0152 57.5022C53.0152 56.6738 52.3436 56.0022 51.5152 56.0022V59.0022ZM48.7019 65.4736L48.7019 63.9736H48.7019V65.4736ZM51.4869 66.6409L52.5539 65.5866L51.4869 66.6409ZM48.7019 73.4449L48.7019 74.9449H48.7019L48.7019 73.4449ZM39.1368 71.9449C38.3084 71.9449 37.6368 72.6165 37.6368 73.4449C37.6368 74.2733 38.3084 74.9449 39.1368 74.9449V71.9449ZM9.63275 50.6054C9.63275 50.3381 9.84954 50.1205 10.118 50.1205V53.1205C11.5073 53.1205 12.6327 51.994 12.6327 50.6054H9.63275ZM10.118 50.1205C10.3865 50.1205 10.6033 50.3381 10.6033 50.6054H7.60327C7.60327 51.994 8.72869 53.1205 10.118 53.1205V50.1205ZM10.6033 50.6054C10.6033 50.8728 10.3865 51.0903 10.118 51.0903V48.0903C8.7287 48.0903 7.60327 49.2168 7.60327 50.6054H10.6033ZM10.118 51.0903C9.84955 51.0903 9.63275 50.8728 9.63275 50.6054H12.6327C12.6327 49.2168 11.5073 48.0903 10.118 48.0903V51.0903ZM20.7947 50.6054C20.7947 50.3381 21.0115 50.1205 21.28 50.1205V53.1205C22.6693 53.1205 23.7947 51.994 23.7947 50.6054H20.7947ZM21.28 50.1205C21.5485 50.1205 21.7653 50.3381 21.7653 50.6054H18.7653C18.7653 51.994 19.8907 53.1205 21.28 53.1205V50.1205ZM21.7653 50.6054C21.7653 50.8728 21.5485 51.0903 21.28 51.0903V48.0903C19.8907 48.0903 18.7653 49.2168 18.7653 50.6054H21.7653ZM21.28 51.0903C21.0115 51.0903 20.7947 50.8728 20.7947 50.6054H23.7947C23.7947 49.2168 22.6693 48.0903 21.28 48.0903V51.0903ZM2 31.804H6.05895V28.804H2V31.804ZM4.5881 30.5983L7.30759 44.1901L10.2493 43.6015L7.52979 30.0097L4.5881 30.5983ZM7.30716 44.1879C7.46849 45.0004 7.91039 45.7304 8.55563 46.25L10.4372 43.9134C10.3404 43.8354 10.274 43.7258 10.2497 43.6036L7.30716 44.1879ZM8.55563 46.25C9.20087 46.7696 10.0083 47.0456 10.8367 47.0298L10.7792 44.0303C10.6551 44.0327 10.534 43.9913 10.4372 43.9134L8.55563 46.25ZM10.8079 47.03H20.6712V44.03H10.8079V47.03ZM20.6424 47.0298C21.4707 47.0456 22.2782 46.7696 22.9234 46.25L21.0419 43.9134C20.9451 43.9913 20.824 44.0327 20.6999 44.0303L20.6424 47.0298ZM22.9234 46.25C23.5687 45.7304 24.0106 45.0004 24.1719 44.1879L21.2294 43.6036C21.2051 43.7258 21.1387 43.8354 21.0419 43.9134L22.9234 46.25ZM24.1741 44.1767L25.7977 35.6603L22.8507 35.0984L21.2272 43.6149L24.1741 44.1767ZM24.3242 33.8793H7.07368V36.8793H24.3242V33.8793ZM84.5 39.5913C84.5 42.6002 82.5301 45.5883 80.2688 47.9761C79.1688 49.1376 78.0637 50.09 77.2319 50.7526C76.8172 51.0829 76.4734 51.3388 76.2363 51.5101C76.1178 51.5957 76.0262 51.6601 75.9658 51.7019C75.9357 51.7228 75.9133 51.738 75.8994 51.7475C75.8925 51.7522 75.8876 51.7555 75.885 51.7573C75.8836 51.7582 75.8828 51.7587 75.8826 51.7589C75.8825 51.7589 75.8825 51.7589 75.8827 51.7588C75.8827 51.7588 75.883 51.7586 75.883 51.7586C75.8833 51.7584 75.8836 51.7582 76.7158 53.0062C77.548 54.2541 77.5484 54.2539 77.5488 54.2536C77.549 54.2535 77.5494 54.2532 77.5498 54.253C77.5505 54.2525 77.5514 54.2519 77.5524 54.2512C77.5544 54.2499 77.5569 54.2481 77.5601 54.246C77.5663 54.2418 77.5748 54.2361 77.5854 54.2289C77.6066 54.2145 77.6365 54.1941 77.6743 54.1679C77.75 54.1154 77.8578 54.0397 77.9931 53.9419C78.2637 53.7464 78.6453 53.4621 79.101 53.0992C80.01 52.3751 81.226 51.3282 82.447 50.0389C84.8278 47.5251 87.5 43.8057 87.5 39.5913H84.5ZM76.7158 53.0062C77.548 51.7582 77.5483 51.7584 77.5486 51.7586C77.5486 51.7586 77.5488 51.7588 77.5489 51.7588C77.5491 51.7589 77.5491 51.7589 77.549 51.7589C77.5487 51.7587 77.5479 51.7582 77.5466 51.7573C77.5439 51.7555 77.5391 51.7522 77.5321 51.7475C77.5182 51.738 77.4959 51.7228 77.4658 51.7019C77.4054 51.6601 77.3138 51.5957 77.1953 51.5101C76.9581 51.3388 76.6144 51.0829 76.1997 50.7526C75.3679 50.09 74.2628 49.1376 73.1628 47.9761C70.9014 45.5883 68.9316 42.6002 68.9316 39.5913H65.9316C65.9316 43.8057 68.6038 47.5251 70.9846 50.0389C72.2056 51.3282 73.4216 52.3751 74.3306 53.0992C74.7862 53.4621 75.1678 53.7464 75.4384 53.9419C75.5738 54.0397 75.6816 54.1154 75.7573 54.1679C75.7951 54.1941 75.8249 54.2145 75.8462 54.2289C75.8568 54.2361 75.8653 54.2418 75.8715 54.246C75.8746 54.2481 75.8772 54.2499 75.8792 54.2512C75.8802 54.2519 75.8811 54.2525 75.8818 54.253C75.8822 54.2532 75.8826 54.2535 75.8828 54.2536C75.8832 54.2539 75.8836 54.2541 76.7158 53.0062ZM68.9316 39.5913C68.9316 37.5258 69.7518 35.545 71.2117 34.0847L69.09 31.9637C67.0677 33.9867 65.9316 36.7305 65.9316 39.5913L68.9316 39.5913ZM71.2117 34.0847C72.6716 32.6243 74.6514 31.804 76.7158 31.804V28.804C73.8555 28.804 71.1124 29.9406 69.09 31.9637L71.2117 34.0847ZM76.7158 31.804C78.7801 31.804 80.76 32.6243 82.2199 34.0847L84.3416 31.9637C82.3192 29.9406 79.5761 28.804 76.7158 28.804V31.804ZM82.2199 34.0847C83.6798 35.545 84.5 37.5258 84.5 39.5913L87.5 39.5913C87.5 36.7305 86.3639 33.9867 84.3416 31.9637L82.2199 34.0847ZM78.3105 39.5913C78.3105 40.473 77.5961 41.187 76.7158 41.187V44.187C79.2539 44.187 81.3105 42.129 81.3105 39.5913H78.3105ZM76.7158 41.187C75.8355 41.187 75.1211 40.473 75.1211 39.5913H72.1211C72.1211 42.129 74.1777 44.187 76.7158 44.187V41.187ZM75.1211 39.5913C75.1211 38.7095 75.8355 37.9955 76.7158 37.9955V34.9955C74.1777 34.9955 72.1211 37.0536 72.1211 39.5913H75.1211ZM76.7158 37.9955C77.5961 37.9955 78.3105 38.7095 78.3105 39.5913H81.3105C81.3105 37.0536 79.2539 34.9955 76.7158 34.9955V37.9955ZM55.9655 0.692531L45.5059 6.57407L46.9763 9.18901L57.4359 3.30747L55.9655 0.692531ZM46.2411 6.38154H37.8735V9.38154H46.2411V6.38154ZM36.3735 7.88154V16.7038H39.3735V7.88154H36.3735ZM37.8735 18.2038H46.2411V15.2038H37.8735V18.2038ZM45.5059 18.0113L55.9655 23.8929L57.4359 21.2779L46.9763 15.3964L45.5059 18.0113ZM58.2007 22.5854V2H55.2007V22.5854H58.2007ZM41.0214 17.5992V21.4398H44.0214V17.5992H41.0214ZM36.8126 15.5178L35.1859 17.145L37.3076 19.266L38.9343 17.6388L36.8126 15.5178ZM38.3716 7.07131L36.7449 5.44409L34.6233 7.56506L36.25 9.19229L38.3716 7.07131ZM34.4537 6.64948V17.9359H37.4537V6.64948H34.4537ZM43.0434 18.8296H43.6496V15.8296H43.0434V18.8296ZM42.5032 17.6834V18.2897H45.5032V17.6834H42.5032ZM43.6496 17.1435H43.0434V20.1435H43.6496V17.1435ZM44.1897 18.2897V17.6834H41.1897V18.2897H44.1897ZM43.0434 17.1435C43.677 17.1435 44.1897 17.6572 44.1897 18.2897H41.1897C41.1897 19.3131 42.0192 20.1435 43.0434 20.1435V17.1435ZM42.5032 18.2897C42.5032 17.6572 43.016 17.1435 43.6496 17.1435V20.1435C44.6738 20.1435 45.5032 19.3131 45.5032 18.2897H42.5032ZM43.6496 18.8296C43.016 18.8296 42.5032 18.3159 42.5032 17.6834H45.5032C45.5032 16.66 44.6738 15.8296 43.6496 15.8296V18.8296ZM43.0434 15.8296C42.0192 15.8296 41.1897 16.66 41.1897 17.6834H44.1897C44.1897 18.3159 43.677 18.8296 43.0434 18.8296V15.8296ZM44.3886 52.9472V78H47.3886V52.9472H44.3886ZM51.5152 56.0022H43.0754V59.0022H51.5152V56.0022ZM43.0754 56.0022C41.6272 56.0022 40.242 56.5846 39.2235 57.6153L41.3574 59.7239C41.8161 59.2597 42.4345 59.0022 43.0754 59.0022V56.0022ZM39.2235 57.6153C38.2056 58.6454 37.6368 60.0387 37.6368 61.4879H40.6368C40.6368 60.8229 40.898 60.1888 41.3574 59.7239L39.2235 57.6153ZM37.6368 61.4879C37.6368 62.9371 38.2056 64.3304 39.2235 65.3605L41.3574 63.2519C40.898 62.787 40.6368 62.1529 40.6368 61.4879H37.6368ZM39.2235 65.3605C40.242 66.3912 41.6272 66.9736 43.0754 66.9736V63.9736C42.4345 63.9736 41.8161 63.7161 41.3574 63.2519L39.2235 65.3605ZM43.0754 66.9736H48.7019V63.9736H43.0754V66.9736ZM48.7019 66.9736C49.3429 66.9736 49.9613 67.2311 50.42 67.6953L52.5539 65.5866C51.5354 64.5559 50.1501 63.9736 48.7019 63.9736L48.7019 66.9736ZM50.42 67.6953C50.8793 68.1601 51.1405 68.7943 51.1405 69.4592H54.1405C54.1405 68.0101 53.5718 66.6167 52.5539 65.5866L50.42 67.6953ZM51.1405 69.4592C51.1405 70.1242 50.8793 70.7584 50.42 71.2232L52.5539 73.3319C53.5718 72.3018 54.1405 70.9084 54.1405 69.4592H51.1405ZM50.42 71.2232C49.9613 71.6874 49.3429 71.9449 48.7019 71.9449L48.7019 74.9449C50.1501 74.9449 51.5354 74.3626 52.5539 73.3319L50.42 71.2232ZM48.7019 71.9449H39.1368V74.9449H48.7019V71.9449Z" fill="black"/>
</svg>
